HIERARCHY
ROOT Hips
{
	OFFSET 54.324100 -11.895816 96.858398
	CHANNELS 6 Xposition Yposition Zposition Xrotation Yrotation Zrotation
	JOINT spine
	{
		OFFSET 0.000000 -0.458068 7.965683
		CHANNELS 3 Xrotation Yrotation Zrotation
		JOINT spine1
		{
			OFFSET 0.000000 -0.000002 10.243103
			CHANNELS 3 Xrotation Yrotation Zrotation
			JOINT spine2
			{
				OFFSET 0.000000 -0.000001 9.814751
				CHANNELS 3 Xrotation Yrotation Zrotation
				JOINT Neck
				{
					OFFSET 0.000000 -1.201385 25.198601
					CHANNELS 3 Xrotation Yrotation Zrotation
					JOINT Head
					{
						OFFSET 0.000000 -0.000001 7.613144
						CHANNELS 3 Xrotation Yrotation Zrotation
						End Site
						{
							OFFSET 0.000000 6.077327 18.428101
						}
					}
				}
				JOINT RightShoulder
				{
					OFFSET -4.132702 0.575449 10.599205
					CHANNELS 3 Xrotation Yrotation Zrotation
					JOINT RightArm
					{
						OFFSET 0.000000 -0.000003 13.901794
						CHANNELS 3 Xrotation Yrotation Zrotation
						JOINT RightArmRoll
						{
							OFFSET 0.000000 -0.000001 7.017883
							CHANNELS 3 Xrotation Yrotation Zrotation
							JOINT RightForeArm
							{
								OFFSET 0.000000 -0.000003 20.440598
								CHANNELS 3 Xrotation Yrotation Zrotation
								JOINT RightForeArmRoll
								{
									OFFSET 0.000000 -0.000002 7.875168
									CHANNELS 3 Xrotation Yrotation Zrotation
									JOINT RightHand
									{
										OFFSET 0.000000 -0.000002 15.803696
										CHANNELS 3 Xrotation Yrotation Zrotation
										End Site
										{
											OFFSET 0.000000 0.000000 0.100006
										}
									}
								}
							}
						}
					}
				}
				JOINT LeftShoulder
				{
					OFFSET 4.132702 0.575449 10.599205
					CHANNELS 3 Xrotation Yrotation Zrotation
					JOINT LeftArm
					{
						OFFSET 0.000000 -0.000003 13.901794
						CHANNELS 3 Xrotation Yrotation Zrotation
						JOINT LeftArmRoll
						{
							OFFSET 0.000000 -0.000001 7.017883
							CHANNELS 3 Xrotation Yrotation Zrotation
							JOINT LeftForeArm
							{
								OFFSET 0.000000 -0.000003 20.440598
								CHANNELS 3 Xrotation Yrotation Zrotation
								JOINT LeftForeArmRoll
								{
									OFFSET 0.000000 -0.000002 7.875168
									CHANNELS 3 Xrotation Yrotation Zrotation
									JOINT LeftHand
									{
										OFFSET 0.000000 -0.000002 15.803696
										CHANNELS 3 Xrotation Yrotation Zrotation
										End Site
										{
											OFFSET 0.000000 0.000000 0.100006
										}
									}
								}
							}
						}
					}
				}
			}
		}
	}
	JOINT RightUpLeg
	{
		OFFSET -7.060482 1.086101 -1.294701
		CHANNELS 3 Xrotation Yrotation Zrotation
		JOINT RightUpLegRoll
		{
			OFFSET 0.000000 -0.000003 18.530800
			CHANNELS 3 Xrotation Yrotation Zrotation
			JOINT RightLeg
			{
				OFFSET 0.000000 0.000003 -22.947601
				CHANNELS 3 Xrotation Yrotation Zrotation
				JOINT RightLegRoll
				{
					OFFSET 0.000000 -0.000004 23.022598
					CHANNELS 3 Xrotation Yrotation Zrotation
					JOINT RightFoot
					{
						OFFSET 0.000000 -0.000003 19.162506
						CHANNELS 3 Xrotation Yrotation Zrotation
						JOINT RightToeBase
						{
							OFFSET 0.000000 -0.000003 16.018799
							CHANNELS 3 Xrotation Yrotation Zrotation
							End Site
							{
								OFFSET 0.006790 0.894205 7.757812
							}
						}
					}
				}
			}
		}
	}
	JOINT LeftUpLeg
	{
		OFFSET 7.060482 1.086101 -1.294701
		CHANNELS 3 Xrotation Yrotation Zrotation
		JOINT LeftUpLegRoll
		{
			OFFSET 0.000000 -0.000003 18.530899
			CHANNELS 3 Xrotation Yrotation Zrotation
			JOINT LeftLeg
			{
				OFFSET 0.000000 -0.000004 22.947502
				CHANNELS 3 Xrotation Yrotation Zrotation
				JOINT LeftLegRoll
				{
					OFFSET 0.000000 -0.000004 23.235504
					CHANNELS 3 Xrotation Yrotation Zrotation
					JOINT LeftFoot
					{
						OFFSET 0.000000 -0.000004 18.949600
						CHANNELS 3 Xrotation Yrotation Zrotation
						JOINT LeftToeBase
						{
							OFFSET 0.000000 -0.000002 16.018799
							CHANNELS 3 Xrotation Yrotation Zrotation
							End Site
							{
								OFFSET -0.030430 0.894204 7.757812
							}
						}
					}
				}
			}
		}
	}
}
MOTION
Frames: 4
Frame Time: 0.041667
55.206596 -7.913476 96.944901 -3.817665 0.674614 2.939985 -0.438327 -0.223031 -0.319057 3.124965 -0.446709 -0.636584 4.770020 -0.454302 -0.631188 6.536519 6.084084 -3.329477 13.399700 -9.635946 -1.886495 -16.933316 -74.077247 -20.186778 -82.685041 -109.231896 -62.684198 -0.000008 0.000003 -0.000005 6.008177 -1.402697 -0.862548 -0.000009 0.000001 -3.007231 -5.000185 -7.999940 0.000030 -0.782370 63.142148 1.439536 -48.124003 113.600820 42.896716 0.000003 0.000001 -0.000000 4.291212 8.898297 0.354830 -0.000007 -0.000008 2.999990 -5.000215 7.998864 -0.000127 -0.698944 -177.529198 2.273687 -179.999991 0.000005 -1.088003 173.604680 -1.585074 -0.525648 -0.000004 0.000000 0.095924 69.610378 6.903215 2.068196 25.456957 -7.355614 0.000001 3.344491 176.034752 -2.016237 -0.000005 -0.000004 -1.137050 -5.488385 3.220838 0.251076 -0.000007 -0.000001 -0.079347 69.394339 -6.886837 -2.104563 25.456955 7.355611 0.000001 
55.202198 -7.926217 96.942200 -3.809352 0.672369 2.968478 -0.439515 -0.224559 -0.318033 3.122586 -0.449827 -0.633542 4.767642 -0.457385 -0.628109 6.564554 6.077277 -3.330259 13.370531 -9.675287 -1.878572 -17.008754 -74.019013 -20.268515 -82.542495 -109.022291 -62.399406 -0.000008 0.000003 -0.000003 6.240488 -1.313274 -0.862486 -0.000009 0.000001 -3.007229 -5.000183 -7.999939 0.000026 -0.745331 63.168144 1.400080 -47.954126 113.470274 42.695523 0.000003 0.000001 -0.000001 4.457641 8.890271 0.344588 -0.000005 -0.000008 2.999990 -5.000213 7.998864 -0.000127 -0.698479 -177.534184 2.269677 -179.999991 0.000005 -1.088003 173.607699 -1.583101 -0.526339 -0.000004 0.000001 0.095926 69.609224 6.903239 2.068272 25.456953 -7.355615 0.000000 3.338538 176.029725 -2.016035 -0.000005 -0.000004 -1.137050 -5.484875 3.218219 0.251090 -0.000008 -0.000001 -0.079348 69.392550 -6.886863 -2.104578 25.456952 7.355613 0.000000 
55.205498 -7.937957 96.946999 -3.801071 0.670083 2.997559 -0.440676 -0.226179 -0.316969 3.120268 -0.453166 -0.630381 4.765324 -0.460685 -0.624909 6.591372 6.071994 -3.331398 13.342249 -9.716409 -1.870848 -17.083485 -73.959836 -20.349469 -82.393064 -108.811170 -62.108891 -0.000009 0.000003 -0.000005 6.474135 -1.225091 -0.863489 -0.000009 0.000001 -3.007231 -5.000184 -7.999939 0.000028 -0.707118 63.195444 1.359451 -47.783693 113.337618 42.493267 0.000003 0.000001 -0.000000 4.626252 8.882533 0.334268 -0.000005 -0.000008 2.999990 -5.000212 7.998864 -0.000127 -0.697594 -177.540181 2.265578 -179.999991 0.000005 -1.088003 173.611183 -1.580125 -0.525909 -0.000004 0.000000 0.095928 69.608159 6.903233 2.068236 25.456955 -7.355613 -0.000000 3.332519 176.025709 -2.015721 -0.000005 -0.000005 -1.137050 -5.481436 3.215560 0.251112 -0.000007 -0.000001 -0.079347 69.391061 -6.886829 -2.104565 25.456953 7.355612 0.000001 
55.186695 -7.931578 96.946800 -3.792818 0.667770 3.027058 -0.441811 -0.227863 -0.315877 3.117990 -0.456658 -0.627138 4.763047 -0.464139 -0.621624 6.617339 6.067763 -3.332794 13.314617 -9.758734 -1.863278 -17.157473 -73.899935 -20.429630 -82.236769 -108.599120 -61.812529 -0.000008 0.000005 -0.000002 6.708749 -1.137789 -0.865441 -0.000008 0.000000 -3.007232 -5.000188 -7.999938 0.000025 -0.668057 63.223830 1.317970 -47.611507 113.203719 42.288799 0.000003 0.000000 0.000000 4.796389 8.874992 0.323898 -0.000006 -0.000008 2.999990 -5.000214 7.998864 -0.000127 -0.696415 -177.545180 2.261409 -179.999991 0.000005 -1.088003 173.615008 -1.578155 -0.526579 -0.000004 0.000000 0.095930 69.607195 6.903197 2.068290 25.456957 -7.355614 0.000001 3.326463 176.021693 -2.015374 -0.000005 -0.000004 -1.137050 -5.478036 3.212870 0.251141 -0.000008 -0.000001 -0.079348 69.389586 -6.886835 -2.104657 25.456955 7.355611 0.000001 
